<svg xmlns="http://www.w3.org/2000/svg" viewBox="0 0 48 48" width="48" height="48">
  <rect width="48" height="48" rx="10" ry="10" fill="#ffffff"/>
  <path d="M35.76 24.36c0-.79-.07-1.55-.2-2.28H24v4.31h6.6c-.28 1.38-1.13 2.56-2.4 3.35v2.78h3.89c2.27-2.09 3.58-5.16 3.58-9.16z" fill="#4285F4"/>
  <path d="M24 37c3.24 0 5.95-1.07 7.93-2.91l-3.89-2.78c-1.07.72-2.45 1.14-4.04 1.14-3.11 0-5.74-2.1-6.68-4.92h-4.02v2.87C15.29 34.39 19.36 37 24 37z" fill="#34A853"/>
  <path d="M17.32 27.53c-.24-.72-.37-1.49-.37-2.28s.13-1.56.37-2.28v-2.87h-4.02A13.01 13.01 0 0 0 11 25.25c0 2.09.5 4.07 1.3 5.85l4.02-3.57z" fill="#FBBC05"/>
  <path d="M24 13.5c1.76 0 3.34.6 4.58 1.79l3.42-3.42C29.94 9.99 27.24 8.5 24 8.5c-4.64 0-8.71 2.61-10.72 6.38l4.02 2.87C18.26 15.6 20.89 13.5 24 13.5z" fill="#EA4335"/>
</svg>
